<?xml version="1.0" encoding="utf-8"?>
<!-- Generator: Adobe Illustrator 15.0.1, SVG Export Plug-In . SVG Version: 6.00 Build 0)  -->
<!DOCTYPE svg PUBLIC "-//W3C//DTD SVG 1.1//EN" "http://www.w3.org/Graphics/SVG/1.1/DTD/svg11.dtd">
<svg version="1.1" id="Layer_1" xmlns="http://www.w3.org/2000/svg" xmlns:xlink="http://www.w3.org/1999/xlink" x="0px" y="0px"
	 width="360px" height="180px" viewBox="0 0 360 180" enable-background="new 0 0 360 180" xml:space="preserve">
<path fill="#242424" d="M38.095,0H10.604c0,0-4.714,1.527-7.069,7.257c0,0-3.535,6.876-3.535,13.749c0,6.877,0,158.515,0,158.515
	h23.958c0,0,7.068-1.524,7.459-7.636c0.394-6.114-0.392-51.567-0.392-51.567l48.698,53.856c0,0,3.926,4.964,9.034,5.347
	c5.105,0.384,34.555,0,34.555,0l-59.298-68.371l25.134-30.171h53.016v67.606c0,0,1.407,31.107,30.244,31.107
	c29.162,0,32.203,0,32.203,0s6.675-2.463,7.069-13.157c0.391-10.697,0.391-11.455,0.391-11.455l-24.347-0.004
	c0,0-13.748,0.384-13.748-12.604c0-12.989,0.391-61.494,0.391-61.494s36.133,4.2,37.704-14.516V44.354c0,0-7.686,7.688-29.427,7.688
	l-8.152-0.119l0.122-39.045h-25.44c0,0-5.928,0.602-7.781,7.092v32.192H88.53c0,0-13.833-0.724-24.456,12.135
	c-10.624,12.852-32.238,38.44-32.238,38.44l0.124-82.409C31.96,20.328,31.259,8.145,38.095,0z"/>
<path fill="#EC1C24" d="M212.071,43.632v23.685c0,0-1.307,12.985-24.873,14.768H64.929c0,0-12.828,0.513-23.038,8.911l23.038-28.008
	c0,0,9.95-11.713,25.137-11.713c15.186,0,100.535,0,100.535,0S205.002,51.526,212.071,43.632z"/>
<path fill="#ED1B24" d="M268.534,20.808c0,0-0.702-12.184,6.134-20.329h-27.492c0,0-4.713,1.528-7.067,7.257
	c0,0-3.535,6.876-3.535,13.749c0,6.877,0,158.516,0,158.516h23.956c0,0,7.069-1.524,7.46-7.637c0.396-6.114,0.28-5.338,0.28-5.338"
	/>
<path fill="#ED1B24" d="M328.71,179.692h25.113c0,0,5.692-0.538,6.027-9.156c0.336-8.618,0-86.819,0-86.819
	s-3.683-28.728-33.15-28.728s-64.627,0-64.627,0v26.813h56.255c0,0,10.046,0.638,10.382,14.363
	C329.045,109.891,328.71,179.692,328.71,179.692z"/>
</svg>
