<?xml version="1.0" encoding="utf-8"?>
<!-- Generator: Adobe Illustrator 16.0.0, SVG Export Plug-In . SVG Version: 6.00 Build 0)  -->
<!DOCTYPE svg PUBLIC "-//W3C//DTD SVG 1.1//EN" "http://www.w3.org/Graphics/SVG/1.1/DTD/svg11.dtd">
<svg version="1.1" id="Livello_1" xmlns="http://www.w3.org/2000/svg" xmlns:xlink="http://www.w3.org/1999/xlink" x="0px" y="0px"
	 width="85.417px" height="24.417px" viewBox="45.583 8.917 85.417 24.417" enable-background="new 45.583 8.917 85.417 24.417"
	 xml:space="preserve">
<g id="Livello_1-2">
	<path id="Vector" fill="#102C53" d="M46.55,9.71c0-0.13,0.11-0.25,0.25-0.25h3.12c1.63,0,2.98,1.33,2.98,2.94s-1.34,2.99-2.96,2.99
		h-1.66v3.12c0,0.13-0.12,0.25-0.25,0.25h-1.22c-0.15,0-0.25-0.12-0.25-0.25v-8.8H46.55z M49.82,13.76c0.74,0,1.37-0.6,1.37-1.38
		c0-0.73-0.62-1.29-1.37-1.29h-1.54v2.67H49.82z"/>
	<path id="Vector_2" fill="#102C53" d="M58.39,9.32c2.66,0,4.78,2.14,4.78,4.8s-2.13,4.77-4.78,4.77s-4.77-2.11-4.77-4.77
		S55.73,9.32,58.39,9.32z M58.39,17.16c1.67,0,3.06-1.37,3.06-3.04s-1.38-3.07-3.06-3.07s-3.04,1.4-3.04,3.07
		S56.72,17.16,58.39,17.16z"/>
	<path id="Vector_3" fill="#102C53" d="M64.79,9.71c0-0.13,0.11-0.25,0.25-0.25h1.22c0.131,0,0.25,0.12,0.25,0.25v7.46H69.9
		c0.149,0,0.25,0.12,0.25,0.25v1.09c0,0.13-0.11,0.25-0.25,0.25h-4.86c-0.15,0-0.25-0.12-0.25-0.25V9.71z"/>
	<path id="Vector_4" fill="#102C53" d="M71.37,9.71c0-0.13,0.12-0.25,0.25-0.25h1.239c0.131,0,0.25,0.12,0.25,0.25v8.8
		c0,0.13-0.119,0.25-0.25,0.25H71.62c-0.13,0-0.25-0.12-0.25-0.25V9.71z"/>
	<path id="Vector_5" fill="#102C53" d="M76.641,11.05h-2.031c-0.149,0-0.25-0.12-0.25-0.25V9.71c0-0.13,0.111-0.25,0.25-0.25h5.811
		c0.15,0,0.25,0.12,0.25,0.25v1.09c0,0.13-0.109,0.25-0.25,0.25h-2.029v7.46c0,0.13-0.121,0.25-0.25,0.25H76.9
		c-0.131,0-0.25-0.12-0.25-0.25v-7.46H76.641z"/>
	<path id="Vector_6" fill="#102C53" d="M81.92,9.71c0-0.13,0.109-0.25,0.25-0.25h5.41c0.15,0,0.25,0.12,0.25,0.25v1.09
		c0,0.13-0.11,0.25-0.25,0.25h-3.93v2.18h3.279c0.131,0,0.25,0.12,0.25,0.25v1.1c0,0.15-0.119,0.25-0.25,0.25H83.65v2.33h3.93
		c0.15,0,0.25,0.12,0.25,0.25v1.09c0,0.13-0.11,0.25-0.25,0.25h-5.41c-0.15,0-0.25-0.12-0.25-0.25V9.7V9.71z"/>
	<path id="Vector_7" fill="#102C53" d="M93.68,9.32c1.34,0,2.311,0.43,3.221,1.24c0.119,0.11,0.119,0.27,0.01,0.37L96.1,11.77
		c-0.09,0.11-0.229,0.11-0.33,0c-0.56-0.49-1.3-0.78-2.05-0.78c-1.7,0-2.96,1.42-2.96,3.1c0,1.68,1.28,3.07,2.98,3.07
		c0.8,0,1.479-0.31,2.029-0.76c0.11-0.09,0.25-0.08,0.33,0l0.82,0.85c0.109,0.09,0.08,0.27-0.01,0.36
		c-0.9,0.88-2.051,1.29-3.23,1.29c-2.66,0-4.8-2.11-4.8-4.77s2.14-4.8,4.8-4.8V9.32z"/>
	<path id="Vector_8" fill="#102C53" d="M98.52,9.56c0-0.13,0.121-0.24,0.25-0.24h0.33l5.53,5.87h0.011V9.7
		c0-0.13,0.109-0.25,0.25-0.25h1.219c0.131,0,0.25,0.12,0.25,0.25v8.94c0,0.13-0.119,0.24-0.25,0.24h-0.319l-5.56-6.1h-0.01v5.71
		c0,0.13-0.111,0.25-0.25,0.25H98.76c-0.13,0-0.25-0.12-0.25-0.25V9.55L98.52,9.56z"/>
	<path id="Vector_9" fill="#102C53" d="M108.66,9.71c0-0.13,0.119-0.25,0.25-0.25h1.24c0.129,0,0.25,0.12,0.25,0.25v8.8
		c0,0.13-0.121,0.25-0.25,0.25h-1.24c-0.131,0-0.25-0.12-0.25-0.25V9.71z"/>
	<path id="Vector_10" fill="#102C53" d="M116.811,9.32c1.34,0,2.31,0.43,3.219,1.24c0.121,0.11,0.121,0.27,0.011,0.37l-0.81,0.84
		c-0.09,0.11-0.23,0.11-0.33,0c-0.561-0.49-1.301-0.78-2.051-0.78c-1.699,0-2.959,1.42-2.959,3.1c0,1.68,1.279,3.07,2.979,3.07
		c0.8,0,1.47-0.31,2.03-0.76c0.109-0.09,0.25-0.08,0.33,0l0.819,0.85c0.11,0.09,0.08,0.27-0.01,0.36
		c-0.899,0.88-2.05,1.29-3.229,1.29c-2.66,0-4.801-2.11-4.801-4.77s2.141-4.8,4.801-4.8V9.32z"/>
	<path id="Vector_11" fill="#102C53" d="M125.71,9.32c2.66,0,4.79,2.14,4.79,4.8s-2.13,4.77-4.79,4.77s-4.771-2.11-4.771-4.77
		S123.05,9.32,125.71,9.32z M125.71,17.16c1.67,0,3.06-1.37,3.06-3.04s-1.379-3.07-3.06-3.07s-3.04,1.4-3.04,3.07
		S124.04,17.16,125.71,17.16z"/>
	<path id="Vector_12" fill="#102C53" d="M47.88,23.48c0.03-0.11,0.13-0.19,0.24-0.19h0.21c0.09,0,0.2,0.069,0.23,0.149l2.63,7.32
		h0.07l2.59-7.32c0.03-0.08,0.13-0.149,0.23-0.149h0.21c0.11,0,0.21,0.08,0.24,0.19l1.71,8.93c0.04,0.189-0.04,0.32-0.24,0.32h-0.53
		c-0.11,0-0.21-0.09-0.24-0.19l-1.18-6.84H54l-2.45,7.02c-0.03,0.08-0.15,0.15-0.23,0.15h-0.24c-0.08,0-0.2-0.07-0.23-0.15
		l-2.47-7.02h-0.05l-1.16,6.84c-0.01,0.09-0.13,0.19-0.24,0.19H46.4c-0.2,0-0.28-0.131-0.24-0.32l1.71-8.93H47.88z"/>
	<path id="Vector_13" fill="#102C53" d="M58.68,23.68c0-0.13,0.12-0.25,0.25-0.25h0.53c0.13,0,0.25,0.12,0.25,0.25v8.801
		c0,0.129-0.12,0.25-0.25,0.25h-0.53c-0.13,0-0.25-0.121-0.25-0.25V23.68z"/>
	<path id="Vector_14" fill="#102C53" d="M62.83,23.68c0-0.13,0.11-0.25,0.25-0.25h0.52c0.13,0,0.25,0.12,0.25,0.25v8.16h3.83
		c0.15,0,0.25,0.12,0.25,0.25v0.391c0,0.129-0.109,0.25-0.25,0.25h-4.6c-0.15,0-0.25-0.121-0.25-0.25V23.68z"/>
	<path id="Vector_15" fill="#102C53" d="M68.891,32.38l4.039-8.94c0.041-0.08,0.11-0.149,0.23-0.149h0.13
		c0.12,0,0.19,0.069,0.229,0.149l4.01,8.94c0.08,0.17-0.029,0.351-0.229,0.351h-0.53c-0.119,0-0.199-0.08-0.229-0.15l-0.979-2.189
		H70.84l-0.97,2.189c-0.03,0.07-0.11,0.15-0.229,0.15h-0.531c-0.199,0-0.31-0.17-0.229-0.351H68.891z M75.2,29.561
		c-0.65-1.451-1.29-2.91-1.94-4.36H73.15l-1.94,4.36H75.2z"/>
	<path id="Vector_16" fill="#102C53" d="M79.37,23.53c0-0.13,0.12-0.24,0.25-0.24h0.33l5.989,7.47h0.031v-7.08
		c0-0.13,0.109-0.25,0.25-0.25h0.459c0.131,0,0.25,0.12,0.25,0.25v8.94c0,0.13-0.119,0.239-0.25,0.239h-0.24l-6.1-7.619h-0.01v7.229
		c0,0.13-0.109,0.25-0.25,0.25h-0.46c-0.13,0-0.25-0.12-0.25-0.25V23.53z"/>
	<path id="Vector_17" fill="#102C53" d="M94.15,23.29c2.66,0,4.779,2.14,4.779,4.8s-2.13,4.77-4.779,4.77
		c-2.65,0-4.771-2.109-4.771-4.77S91.49,23.29,94.15,23.29z M94.15,31.93c2.109,0,3.85-1.729,3.85-3.84c0-2.109-1.74-3.87-3.85-3.87
		c-2.11,0-3.84,1.75-3.84,3.87S92.04,31.93,94.15,31.93z"/>
	<path id="Vector_18" fill="#102C53" d="M105.34,25.34l-0.96,0.74c-0.11,0.08-0.21,0.09-0.31-0.01l-0.25-0.28
		c-0.09-0.11-0.041-0.229,0.029-0.29l1.86-1.811h0.36c0.13,0,0.24,0.121,0.24,0.25v8.53c0,0.13-0.11,0.25-0.24,0.25h-0.48
		c-0.15,0-0.25-0.12-0.25-0.25v-7.14V25.34z"/>
	<path id="Vector_19" fill="#102C53" d="M110.529,28.07v-0.04c-0.6-0.28-1.369-1.021-1.369-2.05c0-1.461,1.16-2.431,2.74-2.431
		s2.76,0.97,2.76,2.431c0,1.02-0.77,1.77-1.37,2.05v0.04c0.62,0.27,1.61,1.08,1.61,2.22c0,1.45-1.131,2.56-3.021,2.56
		s-2.96-1.119-2.96-2.56C108.92,29.15,109.9,28.34,110.529,28.07z M111.891,32.061c1.139,0,2.02-0.621,2.02-1.67
		c0-0.82-0.73-1.66-1.99-1.791c-1.279,0.131-1.99,0.971-1.99,1.791c0,1.02,0.92,1.67,1.971,1.67H111.891z M113.68,26.03
		c0-1-0.77-1.671-1.82-1.671c-0.959,0-1.709,0.681-1.709,1.671c0,0.819,0.529,1.46,1.77,1.579c1.221-0.119,1.77-0.76,1.77-1.579
		H113.68z"/>
	<path id="Vector_20" fill="#102C53" d="M121.189,23.38c0.131-0.05,0.24,0.011,0.291,0.13l0.149,0.32
		c0.07,0.16,0.011,0.311-0.239,0.39c-0.601,0.2-2.951,1.521-3.42,3.311c0,0,0.879-0.601,2.02-0.601c1.5,0,2.859,1.12,2.859,2.881
		c0,1.67-1.34,3.039-2.939,3.039c-2.15,0-3.1-1.67-3.1-3.789c0-3.541,3.029-5.16,4.369-5.69L121.189,23.38z M121.91,29.87
		c0-1.16-0.891-2.07-2.01-2.07c-1.24,0-2.101,0.86-2.101,0.86c-0.229,1.33,0.29,3.32,2.11,3.32c1.119,0,1.99-0.971,1.99-2.11H121.91
		z"/>
	<path id="Vector_21" fill="#102C53" d="M124.359,31.359l0.361-0.31c0.149-0.11,0.25-0.08,0.359,0.07
		c0.12,0.149,0.84,0.92,1.98,0.92c1.01,0,1.91-0.61,1.91-1.66c0-0.899-0.701-1.739-2.351-1.739h-0.75c-0.149,0-0.25-0.08-0.25-0.291
		V28.03c0-0.21,0.069-0.29,0.28-0.29h0.729c1.42,0,2.11-0.73,2.11-1.61c0-1.05-0.801-1.69-1.74-1.69s-1.45,0.53-1.74,0.86
		c-0.08,0.091-0.21,0.15-0.34,0.03l-0.32-0.25c-0.109-0.09-0.09-0.25,0-0.35c0,0,0.961-1.17,2.41-1.17c1.61,0,2.74,0.939,2.74,2.43
		c0,1.02-0.77,1.82-1.37,2.1v0.04c0.62,0.271,1.591,1.011,1.591,2.15c0,1.45-1.121,2.579-2.951,2.579c-1.629,0-2.379-0.85-2.67-1.18
		C124.27,31.59,124.26,31.439,124.359,31.359z"/>
</g>
</svg>
