<?xml version="1.0" encoding="utf-8"?>
<!-- Generator: Adobe Illustrator 26.5.1, SVG Export Plug-In . SVG Version: 6.00 Build 0)  -->
<svg version="1.1" id="Calque_1" xmlns="http://www.w3.org/2000/svg" xmlns:xlink="http://www.w3.org/1999/xlink" x="0px" y="0px"
	 viewBox="0 0 411.1 154.16" style="enable-background:new 0 0 411.1 154.16;" xml:space="preserve">
<style type="text/css">
	.st0{fill:#FBBA00;}
</style>
<g>
	<g>
		<path class="st0" d="M100.16,23.16H74.75V79.9c0,12.57-3.41,21.42-16.39,21.42S41.97,92.47,41.97,79.9V23.16H16.56v60.97
			c0,26.09,16.94,37.84,41.8,37.84s41.8-11.75,41.8-37.84V23.16z"/>
		<path class="st0" d="M171.94,72.58c0-30.55-16.37-49.41-47.79-49.41c-5.55,0-15.96,0-15.96,0v25.37
			c4.01-2.96,8.81-4.69,13.97-4.69c14.1,0,25.53,12.86,25.53,28.72s-11.43,28.72-25.53,28.72c-5.37,0-10.34-1.87-14.45-5.05
			c-1.3,7.61-4.66,14.46-9.84,19.5c7.09,3.94,15.86,6.07,26.26,6.07h1.37l0.38,0.39l9.94,12.72h26.56l-14.45-18.03
			C163.71,109.59,171.94,93.85,171.94,72.58z"/>
	</g>
	<g>
		<path d="M192.98,36.98v18.75c0,4.81,1.45,6.39,4.56,6.39c3.03,0,4.52-1.58,4.52-6.39V36.98h5.31v18.75
			c0,7.63-4.4,10.62-9.83,10.62c-5.47,0-9.87-2.99-9.87-10.62V36.98H192.98z"/>
		<path d="M213.21,36.98h6.3l9.62,22.73h0.08V36.98h4.81v28.95h-6.35l-9.58-22.56h-0.08v22.56h-4.81V36.98H213.21z"/>
		<path d="M240.17,36.98h5.31v28.95h-5.31V36.98z"/>
		<path d="M248.92,36.98h5.72l5.85,22.32h0.08l6.01-22.32h5.48l-8.84,28.95h-5.6L248.92,36.98z"/>
		<path d="M275.46,36.98h15.22v4.23h-9.91v7.71h9.37v4.23h-9.37v8.54h10.33v4.23h-15.64L275.46,36.98L275.46,36.98z"/>
		<path d="M295.95,36.98h9.04c5.14,0,8.63,2.32,8.63,7.63c0,3.77-2.36,6.31-5.6,6.8v0.12c1.08,0.17,2.28,0.66,3.19,3.36l3.77,11.03
			h-5.64l-2.86-9.42c-0.71-2.28-2.07-3.03-4.02-3.03h-1.2v12.44h-5.31V36.98z M303.41,49.59c2.82,0,4.73-1.45,4.73-4.4
			c0-3.32-1.74-4.15-4.73-4.15h-2.16v8.54h2.16V49.59z"/>
		<path d="M318.88,60.33c1.04,0.66,3.32,1.78,6.14,1.78c2.32,0,4.4-1.29,4.4-4.19c0-2.07-1.2-2.99-3.77-4.4l-2.7-1.49
			c-2.86-1.58-4.73-3.86-4.73-7.59c0-5.18,4.27-7.88,9.12-7.88c3.07,0,5.23,0.79,6.06,1.04l-0.25,4.44
			c-1.29-0.5-2.99-1.24-5.43-1.24c-2.65,0-4.02,1.41-4.02,3.4c0,2.16,1.45,2.99,3.07,3.9l3.11,1.74c3.4,1.91,5.02,3.73,5.02,7.8
			c0,5.89-4.19,8.71-9.71,8.71c-2.9,0-5.14-0.41-6.59-1.29L318.88,60.33z"/>
		<path d="M340.03,36.98h5.31v28.95h-5.31V36.98z"/>
		<path d="M355.79,41.21h-6.47v-4.23h18.21v4.23h-6.43v24.72h-5.31V41.21z"/>
		<path d="M371.47,36.98h15.22v4.23h-9.91v7.71h9.37v4.23h-9.37v8.54h10.33v4.23h-15.64L371.47,36.98L371.47,36.98z M379.03,32.21
			h4.92l-2.86,3.4h-4.71L379.03,32.21z"/>
		<path d="M187.67,81.06h5.03c6.02,0,9.22,3.26,9.22,9.64c0,6.49-3.87,9.64-9.22,9.64h-5.03V81.06z M191.2,97.62h1.19
			c3.98,0,5.77-2.71,5.77-6.93s-1.79-6.93-5.77-6.93h-1.19V97.62z"/>
		<path d="M208.59,81.06v12.48c0,3.2,0.97,4.25,3.04,4.25c2.02,0,3.01-1.05,3.01-4.25V81.06h3.53v12.48c0,5.08-2.93,7.07-6.54,7.07
			c-3.64,0-6.57-1.99-6.57-7.07V81.06H208.59z"/>
		<path d="M261.69,81.03v18.75c0,4.81,1.45,6.39,4.56,6.39c3.03,0,4.52-1.58,4.52-6.39V81.03h5.31v18.75
			c0,7.63-4.4,10.62-9.83,10.62c-5.47,0-9.87-2.99-9.87-10.62V81.03H261.69z"/>
		<path d="M281.97,81.03h15.22v4.23h-9.91v7.72h9.37v4.23h-9.37v8.54h10.33v4.23h-15.64L281.97,81.03L281.97,81.03z M289.53,76.26
			h4.77l-2.72,3.4h-4.71L289.53,76.26z"/>
		<path d="M302.71,81.03h8.46c5.97,0,8.71,2.24,8.71,7.13c0,4.6-2.9,5.97-4.81,6.68v0.08c2.24,0.5,5.48,2.07,5.48,6.93
			c0,5.27-3.86,8.13-9,8.13h-8.84V81.03z M307.85,93.14h2.74c2.61,0,4.15-1.95,4.15-4.31c0-2.45-1.74-3.9-4.27-3.9h-2.61v8.21
			H307.85z M307.85,105.91h2.95c2.86,0,4.44-1.74,4.44-4.44c0-2.53-1.33-4.44-4.6-4.44h-2.78v8.88H307.85z"/>
		<path d="M325.77,81.03h15.22v4.23h-9.91v7.72h9.37v4.23h-9.37v8.54h10.33v4.23h-15.64L325.77,81.03L325.77,81.03z"/>
		<path d="M364.92,109.36c-1.08,0.58-3.65,1.04-6.26,1.04c-8.79,0-13.31-6.43-13.31-14.89s4.52-14.89,13.15-14.89
			c2.95,0,5.35,0.79,6.43,1.2l-0.29,4.77c-1.08-0.54-2.78-1.58-5.48-1.58c-4.4,0-8.17,2.99-8.17,10.49s3.77,10.49,8.17,10.49
			c2.57,0,4.27-0.62,5.48-1.49L364.92,109.36z"/>
		<path d="M251.56,95.39c0-10.41-5.52-14.89-11.53-14.89s-11.53,4.48-11.53,14.89c0,8.54,3.72,13.09,8.37,14.44
			c1.15,0.38,2.42,0.56,3.75,0.56c0.48,0,0.9-0.02,1.29-0.05l1.88,2.33l0.19,0.24h4.77l-3.27-4.08
			C248.99,106.82,251.56,102.49,251.56,95.39z M240.03,84.57c3.36,0,6.06,2.86,6.06,10.83s-2.7,10.83-6.06,10.83
			s-6.06-2.86-6.06-10.83S236.67,84.57,240.03,84.57z"/>
	</g>
</g>
</svg>
